<?xml version="1.0" encoding="UTF-8"?>
<svg id="Layer_1" xmlns="http://www.w3.org/2000/svg" version="1.1" viewBox="0 0 140 54">
  <!-- Generator: Adobe Illustrator 29.4.0, SVG Export Plug-In . SVG Version: 2.1.0 Build 152)  -->
  <defs>
    <style>
      .st0 {
        fill: #fff;
      }
    </style>
  </defs>
  <rect class="st0" x="127" y="16.67" width="8" height="32"/>
  <path class="st0" d="M135,4.67h-8c-13.51,0-22.45,3.38-28.15,10.62-5.43,6.92-7.85,17.21-7.85,33.38h8c-.03-4.01.17-8.01.59-12h23.41v-8h-21.89c3.37-11.75,11.14-16,25.89-16h8v-8Z"/>
  <g>
    <path class="st0" d="M20.63,21.88c1.32.1,1.51.64,1.51,1.61v4.94h-.03l-5.65-6.96h-3.44v.41c.21,0,.47.05,1.38,1.17v7.72c0,1.08-.46,1.19-1.43,1.3v.41h3.7v-.41c-1.21-.13-1.55-.44-1.55-1.61v-6.51h.03l7.25,8.83h.46v-9.59c0-.78.1-1.16,1.27-1.3v-.41h-3.5v.41Z"/>
    <polygon class="st0" points="31.9 24.74 31.9 24.74 31.9 24.74 31.9 24.74 31.9 24.74"/>
    <path class="st0" d="M31.04,26.39l-2.39-1.19c-1.37-.68-1.68-1.04-1.68-1.92,0-1.06.9-1.55,1.74-1.55,1.92,0,2.9,1.87,3.19,3.01h.46v-3.53h-.49c-.08.31-.16.55-.54.55-.47,0-1.24-.54-2.54-.54-3.09,0-3.6,2.21-3.6,3.21,0,.75,0,2.15,2.79,3.49l1.09.52c1.06.51,1.82.9,1.82,1.99,0,.21-.08,1.82-2.04,1.82-2.07,0-3.01-1.84-3.34-3.48h-.47v4.02h.47c.07-.26.15-.55.49-.55.51,0,1.24.55,2.79.55,3,0,4.04-1.97,4.04-3.41,0-1.78-1.24-2.72-1.79-3Z"/>
    <path class="st0" d="M33.79,21.47v.41c.76.05,1.43.08,1.43,1.16v7.88c0,1.01-.5,1.06-1.43,1.16v.41h5.86v-.41c-1.14-.05-1.79-.08-1.79-1.16v-3.79c2.05,0,2.31,1.19,2.49,2.52h.41v-5.51h-.41c-.23,1.3-.47,2.46-2.49,2.43v-3.78c0-.7.29-.77,1.17-.77,2.8,0,3.24,1.03,3.6,2.72h.39v-3.27h-9.23Z"/>
    <path class="st0" d="M48.58,28.97c.81-1.22,2.05-1.52,3.38-1.48,0-.39,0-.86,0-1.19-1.49.09-3.03-.42-3.71-1.95-.15-.4-.29-.8-.42-1.21-.08-.77-.08-1.54-.06-2.21.28-1.44,1.31-2.19,2.56-2.66-.14-.37-.33-.8-.45-1.1-1.34.65-2.96.77-4.17-.38-.26-.27-.51-.55-.76-.84-.4-.73-.73-1.49-.98-2.16-.29-1.43.38-2.53,1.34-3.44-.27-.28-.61-.61-.84-.84-.99,1.11-2.44,1.84-4,1.25-.3-.13-.59-.27-.89-.42-.68-.54-1.3-1.14-1.81-1.68-.82-1.21-.62-2.48-.07-3.69-.36-.15-.79-.33-1.1-.46-.49,1.41-1.55,2.63-3.22,2.68-.51-.01-1.02-.04-1.53-.1-.65-.21-1.26-.47-1.8-.71-1.22-.8-1.52-2.05-1.48-3.38-.39,0-.86,0-1.19,0,.09,1.49-.42,3.03-1.95,3.71-.35.13-.71.26-1.07.38-.83.09-1.65.1-2.37.08-1.43-.28-2.19-1.31-2.66-2.56-.36.14-.8.32-1.1.45.65,1.34.76,2.96-.38,4.17-.31.29-.62.57-.95.84-.71.39-1.45.7-2.11.95-1.43.29-2.53-.37-3.44-1.34-.28.27-.61.6-.84.84,1.12.99,1.84,2.44,1.24,4-.14.33-.3.65-.46.97-.51.64-1.08,1.22-1.6,1.7-1.21.82-2.48.62-3.69.07-.15.36-.33.79-.46,1.09,1.41.49,2.63,1.55,2.68,3.22-.01.44-.04.89-.08,1.33-.22.73-.51,1.42-.77,2.02-.8,1.22-2.05,1.52-3.38,1.48,0,.39,0,.86,0,1.19,1.49-.09,3.02.42,3.71,1.95.14.36.27.73.39,1.1.09.82.1,1.64.08,2.36-.28,1.43-1.31,2.19-2.56,2.66.14.36.32.8.45,1.1,1.34-.65,2.96-.77,4.17.38.29.3.56.61.83.93.39.71.7,1.45.95,2.1.29,1.43-.37,2.53-1.35,3.44.27.28.61.61.84.84.99-1.11,2.44-1.84,4-1.24.35.16.69.32,1.03.49.64.51,1.21,1.08,1.69,1.59.82,1.21.62,2.48.07,3.69.36.16.79.33,1.09.46.49-1.41,1.55-2.63,3.22-2.68.43.01.85.03,1.28.07.76.23,1.49.52,2.12.8,1.22.81,1.52,2.05,1.48,3.38.39,0,.86,0,1.19,0-.09-1.49.42-3.03,1.95-3.71.4-.15.81-.3,1.22-.42.77-.08,1.53-.08,2.2-.06,1.44.28,2.19,1.31,2.66,2.56.36-.14.8-.33,1.1-.45-.65-1.34-.77-2.96.38-4.17.31-.29.62-.57.95-.84.68-.36,1.38-.66,2-.9,1.43-.29,2.53.37,3.44,1.34.28-.27.61-.6.84-.84-1.11-.99-1.84-2.44-1.25-4,.19-.43.4-.86.63-1.28.48-.58,1-1.1,1.47-1.55,1.21-.82,2.48-.62,3.69-.07.15-.36.33-.79.46-1.09-1.41-.49-2.63-1.55-2.68-3.22.01-.47.04-.94.09-1.41.22-.69.49-1.34.74-1.91ZM42.49,14.65c.55.14,1.06.68,1.46,1.17.39.61.86,1.26,1.06,2.02l-.09.32c-.22.52-.87.64-1.37.8-.24.04-.47.07-.7.11-.55-1.04-1.21-2.01-1.96-2.9.17-.28.35-.56.54-.83.28-.34.59-.72,1.07-.7ZM44.41,25.31s0,.03,0,.05c.05.54.08,1.09.08,1.64,0,1.66-.25,3.27-.71,4.78-.05.17-.11.33-.17.49-.13.38-.26.77-.42,1.14-.02.06-.05.11-.08.17-.61,1.4-1.4,2.7-2.36,3.87-.09.11-.19.21-.28.32-.59.69-1.23,1.33-1.93,1.91-.02.02-.04.04-.06.06h0c-.81.67-1.69,1.27-2.62,1.77,0,0-.02,0-.03.01-.88.47-1.8.87-2.77,1.18-.06.02-.12.04-.18.06-1.02.32-2.09.54-3.18.65-.05,0-.11,0-.17.01-.51.05-1.02.08-1.54.08-1.68,0-3.29-.25-4.82-.72-.14-.04-.28-.1-.42-.15-1.91-.64-3.68-1.61-5.2-2.87-.11-.09-.2-.18-.31-.27-2.2-1.89-3.89-4.35-4.85-7.16-.06-.17-.12-.33-.17-.5-.47-1.53-.72-3.16-.72-4.84s.26-3.31.72-4.84c.04-.14.09-.27.14-.4.64-1.91,1.61-3.67,2.86-5.19.1-.12.21-.23.31-.35,1.9-2.19,4.35-3.87,7.15-4.82.16-.06.32-.12.49-.17,1.53-.47,3.15-.72,4.83-.72s3.28.25,4.8.71c.17.05.33.11.49.17,1.89.64,3.62,1.6,5.13,2.83.13.11.26.23.39.34,1.49,1.29,2.75,2.83,3.69,4.58,0,0,0,0,0,0,.02.04.04.08.05.11.43.81.79,1.66,1.08,2.53.04.11.09.23.12.34.32,1.02.54,2.09.65,3.19ZM36.75,10.02c.51-.08,1.11.17,1.64.44.62.44,1.35.87,1.85,1.54l.04.33c0,.56-.56.92-.96,1.26-.22.13-.43.26-.65.4-.87-.72-1.82-1.34-2.83-1.87.06-.35.11-.69.19-1.04.13-.43.27-.89.72-1.05ZM29.63,8.04c.61-.36,1.6-.23,2.31-.16.15.02.3.04.44.06.43.11.86.25,1.26.48l.16.29c.21.52-.16,1.07-.4,1.54-.16.22-.32.44-.48.65-1.08-.33-2.2-.55-3.36-.66-.07-.32-.15-.63-.2-.95-.05-.44-.09-.93.26-1.25ZM22.24,8.86c.34-.46,1.03-.71,1.64-.9.71-.13,1.49-.31,2.26-.2l.26.2c.39.4.26,1.05.22,1.57-.06.24-.11.47-.17.71-1.18.11-2.33.33-3.43.67-.19-.26-.38-.52-.55-.8-.21-.39-.43-.82-.24-1.25ZM16.99,10.92c.59-.38,1.21-.81,1.93-.99l.32.09c.52.22.64.87.8,1.37.04.24.08.48.12.72-1.06.56-2.05,1.23-2.96,1.99-.27-.17-.55-.34-.81-.53-.34-.28-.72-.59-.7-1.07.15-.61.79-1.15,1.31-1.58ZM11.6,16.45c.4-.58.82-1.23,1.42-1.69l.33-.04c.56,0,.92.55,1.26.96.13.21.26.42.39.63-.72.87-1.34,1.81-1.87,2.82-.33-.05-.66-.11-.98-.18-.43-.13-.89-.27-1.05-.72-.08-.55.21-1.21.51-1.77ZM8.9,23.1c.13-.6.27-1.22.6-1.77l.29-.16c.52-.21,1.07.16,1.54.4.2.15.4.29.6.43-.34,1.1-.57,2.24-.67,3.42-.31.07-.62.14-.93.2-.44.04-.93.09-1.25-.26-.35-.6-.24-1.55-.17-2.25ZM9.89,32.76c-.47-.35-.73-1.06-.92-1.68-.13-.71-.3-1.47-.19-2.24l.2-.26c.4-.39,1.05-.26,1.57-.22.23.06.46.11.69.16.11,1.2.33,2.36.68,3.47-.25.18-.51.36-.77.53-.39.21-.82.43-1.25.24ZM13.52,39.29c-.6-.15-1.14-.78-1.57-1.3-.37-.58-.8-1.2-.98-1.91l.09-.32c.22-.52.87-.64,1.37-.8.23-.03.46-.07.69-.11.56,1.06,1.22,2.05,1.99,2.96-.17.27-.33.53-.51.79-.28.34-.59.72-1.07.7ZM19.29,43.91c-.58.09-1.27-.24-1.84-.55-.57-.4-1.21-.81-1.67-1.41l-.04-.33c0-.56.55-.93.96-1.26.2-.12.4-.25.6-.37.89.73,1.86,1.37,2.89,1.91-.05.32-.11.64-.18.95-.13.43-.27.89-.72,1.05ZM26.47,45.96c-.55.33-1.42.25-2.1.18-.65-.14-1.36-.28-1.97-.64l-.16-.29c-.21-.52.16-1.07.4-1.53.14-.19.28-.39.42-.59,1.11.34,2.28.56,3.48.67.07.32.15.63.2.95.04.44.09.93-.26,1.25ZM33.85,45.11c-.4.53-1.26.79-1.93.99-.63.11-1.3.24-1.96.14l-.26-.2c-.39-.4-.26-1.05-.22-1.57.06-.24.11-.48.17-.72,1.18-.11,2.32-.35,3.41-.69.19.26.37.52.55.8.21.39.43.82.24,1.25ZM38.91,43.17c-.53.34-1.1.7-1.74.87l-.32-.09c-.52-.22-.64-.87-.81-1.37-.04-.25-.08-.49-.12-.73,1.02-.54,1.97-1.19,2.85-1.92.28.17.55.35.82.53.34.28.72.59.7,1.07-.16.64-.85,1.21-1.39,1.64ZM44.2,37.84s-.02.04-.03.05c-.34.49-.71.99-1.2,1.37l-.33.04c-.56,0-.92-.56-1.27-.96-.13-.21-.26-.42-.39-.63.75-.91,1.4-1.91,1.95-2.97.32.05.63.11.94.18.43.13.89.27,1.05.72.1.7-.4,1.57-.73,2.19ZM47.09,30.84s-.01.09-.02.13c-.12.53-.26,1.07-.55,1.56l-.29.17c-.52.21-1.07-.16-1.54-.4-.2-.14-.39-.29-.59-.43.33-1.09.55-2.23.65-3.4.31-.07.61-.14.92-.2.44-.04.93-.09,1.25.26.36.61.24,1.6.16,2.31ZM47.21,25.06l-.2.26c-.4.39-1.05.26-1.57.22-.23-.06-.46-.11-.69-.16-.11-1.19-.35-2.33-.7-3.43.25-.18.51-.36.77-.53.39-.21.82-.44,1.25-.24.53.39.79,1.24.98,1.91.12.63.24,1.3.15,1.98Z"/>
  </g>
  <rect class="st0" x="70" width="1" height="54"/>
</svg>