<svg width="84" height="60" xmlns="http://www.w3.org/2000/svg" xmlns:xlink="http://www.w3.org/1999/xlink" xml:space="preserve" overflow="hidden"><defs><clipPath id="clip0"><rect x="0" y="0" width="84" height="60"/></clipPath><clipPath id="clip1"><rect x="0" y="0" width="83" height="60"/></clipPath></defs><g clip-path="url(#clip0)"><g clip-path="url(#clip1)"><path d="M7.99987 19.9997 7.99987 75.9988 87.9986 75.9988 87.9986 19.9997 7.99987 19.9997ZM49.3992 54.8991C48.5992 55.6991 47.3992 55.6991 46.5993 54.8991L16.9997 25.9996 79.0987 25.9996 49.3992 54.8991ZM33.4995 47.6992 13.9998 67.2989 13.9998 28.5995 33.4995 47.6992ZM36.3994 50.4992 43.8993 57.7991C45.0993 58.8991 46.5993 59.4991 48.0992 59.4991 49.5992 59.4991 51.0992 58.8991 52.2992 57.7991L59.799 50.4992 79.1987 69.9989 16.8997 69.9989 36.3994 50.4992ZM62.499 47.6992 81.9987 28.6995 81.9987 67.1989 62.499 47.6992Z" fill="#4472C4" fill-rule="nonzero" fill-opacity="1" transform="matrix(1.00404 0 0 1 -6.69305 -17.3325)"/></g></g></svg>